<svg id="Capa_1" data-name="Capa 1" xmlns="http://www.w3.org/2000/svg" viewBox="0 0 180 31"><defs><style>.cls-1{fill:#e92127;}.cls-2{fill:#f1f1f1;}.cls-3{fill:#bbb;}.cls-4{fill:#48c2dc;}.cls-5{fill:#fefefe;}.cls-6{fill:#f8d90a;}.cls-7{fill:#000d38;}.cls-8{fill:#23c4ff;}</style></defs><path class="cls-1" d="M114.31,5.62A2.06,2.06,0,0,1,116.25,7a1.94,1.94,0,0,1,.12.57,2,2,0,0,1-1.44,2.09,2.09,2.09,0,0,1-.78.09,2,2,0,0,1-1.71-1.2,1.92,1.92,0,0,1-.18-.62,2.07,2.07,0,0,1,1.44-2.19A2.15,2.15,0,0,1,114.31,5.62Zm1.49,2.05a1.49,1.49,0,1,0-1.49,1.48A1.48,1.48,0,0,0,115.8,7.67Z"/><path class="cls-2" d="M112.69,6.18a2.15,2.15,0,0,1,.91-.59h0l-.06,0a1.82,1.82,0,0,0-.31.16L113,6l-.21.2a1.83,1.83,0,0,0-.24.31,1.18,1.18,0,0,0-.11.19,2,2,0,0,0-.14.34,1.73,1.73,0,0,0-.07.31,1.52,1.52,0,0,0,0,.21v.24a.28.28,0,0,0,0,.09s0,.1,0,.14a1.55,1.55,0,0,0,0,.21l.06.19a1.51,1.51,0,0,0,.12.26,3,3,0,0,0,.21.33l.19.21a3.27,3.27,0,0,0,.37.28,1.74,1.74,0,0,0,.27.14l.21.09.27.06.14,0h.28a1.43,1.43,0,0,0,.29,0,2,2,0,0,0,.41-.1l.2-.08a3.07,3.07,0,0,0,.31-.17l.21-.17.15-.14.21-.25a4.05,4.05,0,0,0,.21-.35l0,0a.11.11,0,0,1,0,.06,2.71,2.71,0,0,1-.21.37L116,9.1l-.18.19a.39.39,0,0,1-.1.08s0,0,0,0l-.19.13-.23.12-.19.08-.18.06-.25.05-.23,0h-.23l-.24,0a1.54,1.54,0,0,1-.37-.09,2.93,2.93,0,0,1-.4-.19.55.55,0,0,1-.14-.09,1.27,1.27,0,0,1-.25-.21l-.11-.11a2.35,2.35,0,0,1-.19-.25,1.71,1.71,0,0,1-.21-.4,2.08,2.08,0,0,1-.12-.41,1.24,1.24,0,0,1,0-.27,1.31,1.31,0,0,1,0-.28,1.36,1.36,0,0,1,0-.2c0-.1,0-.2.07-.3a2.75,2.75,0,0,1,.15-.36l.11-.19a2.56,2.56,0,0,1,.2-.26Z"/><path class="cls-3" d="M112.69,6.18v0a2.56,2.56,0,0,0-.2.26l-.11.19a2.75,2.75,0,0,0-.15.36c0,.1,0,.2-.07.3a1.36,1.36,0,0,0,0,.2,1.31,1.31,0,0,0,0,.28,1.24,1.24,0,0,0,0,.27,2.08,2.08,0,0,0,.12.41,1.71,1.71,0,0,0,.21.4,2.35,2.35,0,0,0,.19.25l.11.11a1.27,1.27,0,0,0,.25.21.55.55,0,0,0,.14.09,2.93,2.93,0,0,0,.4.19,1.54,1.54,0,0,0,.37.09l.24,0h.23l.23,0,.25-.05.18-.06.19-.08.23-.12.19-.13s0,0,0,0a2.36,2.36,0,0,1-.42.28,2.54,2.54,0,0,1-.59.19,1.24,1.24,0,0,1-.27,0,.89.89,0,0,1-.23,0,2.11,2.11,0,0,1-.55-.09,2.44,2.44,0,0,1-.44-.19,2.07,2.07,0,0,1-.38-.28,2.11,2.11,0,0,1-.39-.45,2.23,2.23,0,0,1-.27-.61,1.53,1.53,0,0,1-.07-.36,2.16,2.16,0,0,1,0-.36,2,2,0,0,1,0-.34,2.41,2.41,0,0,1,.2-.53,2.12,2.12,0,0,1,.23-.35A.69.69,0,0,1,112.69,6.18Z"/><path class="cls-4" d="M115.8,7.67a1.49,1.49,0,1,1-1.48-1.48A1.49,1.49,0,0,1,115.8,7.67Zm-.43,0a1.06,1.06,0,1,0-1.06,1.05A1.06,1.06,0,0,0,115.37,7.67Z"/><path class="cls-5" d="M115.37,7.67a1.06,1.06,0,0,1-2.11,0,1.06,1.06,0,0,1,2.11,0Zm-1.06.7a.7.7,0,1,0,0-1.39.7.7,0,1,0,0,1.39Z"/><path class="cls-6" d="M114.31,8.37a.7.7,0,1,1,.71-.7A.7.7,0,0,1,114.31,8.37Z"/><path class="cls-7" d="M54.78,23.35a5.67,5.67,0,0,1-3.21-.88A4.57,4.57,0,0,1,49.74,20a9.77,9.77,0,0,1-.41-3,9.8,9.8,0,0,1,.41-3,4.57,4.57,0,0,1,1.83-2.48,5.67,5.67,0,0,1,3.21-.88,5.56,5.56,0,0,1,3.17.88A4.54,4.54,0,0,1,59.79,14a9.82,9.82,0,0,1,.4,3,9.8,9.8,0,0,1-.4,3A4.54,4.54,0,0,1,58,22.47,5.56,5.56,0,0,1,54.78,23.35Zm0-2.53a2.2,2.2,0,0,0,2.27-1.59A7.64,7.64,0,0,0,57.31,17a7.81,7.81,0,0,0-.26-2.26,2.2,2.2,0,0,0-2.27-1.59,2.22,2.22,0,0,0-2.31,1.59A7.87,7.87,0,0,0,52.22,17a7.7,7.7,0,0,0,.25,2.25A2.22,2.22,0,0,0,54.78,20.82Z"/><path class="cls-7" d="M63.3,23.22H61a.23.23,0,0,1-.26-.26V11.27A.23.23,0,0,1,61,11H63.3a.23.23,0,0,1,.25.26v1h0a9.62,9.62,0,0,1,3.71-.63,2,2,0,0,1,1.88.78c.12.12.27-.47.19-.35l-1,1.77c-.1.13-.06.28-.2.18-.6-.39-1.16-2-1.75-2-1.54,0-4.29.91-2.95,3.35L63.55,23A.23.23,0,0,1,63.3,23.22Z"/><path class="cls-7" d="M86.45,23.35a5.72,5.72,0,0,1-3.25-.89A4.59,4.59,0,0,1,81.36,20a9.93,9.93,0,0,1-.43-3,10,10,0,0,1,.41-3,4.57,4.57,0,0,1,1.83-2.48,6.14,6.14,0,0,1,6.35,0A4.69,4.69,0,0,1,91.34,14a12.6,12.6,0,0,1,.4,3.67c0,.17-.09.26-.28.26H84c-.11,0-.16.05-.16.15A2.74,2.74,0,0,0,84,19a2.6,2.6,0,0,0,2.73,1.84,3.72,3.72,0,0,0,2.87-1.16.25.25,0,0,1,.38-.05l1.49,1.31a.23.23,0,0,1,0,.36A6.23,6.23,0,0,1,86.45,23.35Zm2.43-7.74a3.3,3.3,0,0,0-.15-1,2.22,2.22,0,0,0-.89-1.15A2.61,2.61,0,0,0,86.35,13,2.25,2.25,0,0,0,84,14.57a3,3,0,0,0-.16,1c0,.1,0,.15.16.15h4.78A.13.13,0,0,0,88.88,15.61Z"/><path class="cls-7" d="M123.26,23.33h-2a.31.31,0,0,1-.33-.25l-3.37-9.17-.22-.58-.71-1.95c0-.17,0-.25.2-.25h2.48a.3.3,0,0,1,.3.25l2.69,7.93h0L125,11.38a.3.3,0,0,1,.3-.25h2.43c.19,0,.26.08.21.25l-4.31,11.7A.31.31,0,0,1,123.26,23.33Z"/><path class="cls-7" d="M137.21,23.33h-2.12c-.17,0-.26-.08-.26-.25v-.89h0c-.66.94-1.83,1.12-3.47,1.12a4.32,4.32,0,0,1-2.91-.65,3.37,3.37,0,0,1-1.17-2.77A3.41,3.41,0,0,1,128.54,17a5.85,5.85,0,0,1,3.61-1h2.48a.13.13,0,0,0,.15-.15v-.58a1.85,1.85,0,0,0-.6-1.54,3.5,3.5,0,0,0-2.11-.49c-1.14,0-4.08.17-5.39.17-.59.12-.93-.42-1.47,1.13l.42-1.65a5.56,5.56,0,0,1-.21-1.77c2.83,0,5.17-.28,7-.28a6,6,0,0,1,3.92,1,4.06,4.06,0,0,1,1.17,3.25v8C137.47,23.25,137.38,23.33,137.21,23.33Zm-5.14-2c1.81,0,2.71-.7,2.71-2.08v-.94a.13.13,0,0,0-.15-.15h-2q-2.64,0-2.64,1.65C130,20.8,130.67,21.31,132.07,21.31Z"/><path class="cls-7" d="M43.88,23.35c.45.41,79.34.27,80.05.26,1,0,8,.19,9.64,0,.91-.11,6.13-.13,8-.26s2.8,0,4-2a1.75,1.75,0,0,0-.56-2.71,5,5,0,0,0-1.58-.43l-1.32-.12c-2.5-.26-3.75-1.45-3.75-3.6a3.47,3.47,0,0,1,1.24-2.82,5.36,5.36,0,0,1,3.49-1,7.19,7.19,0,0,1,4.59,1.5.22.22,0,0,1,0,.35L146.55,14a.26.26,0,0,1-.36,0A5.39,5.39,0,0,0,143,13a2.22,2.22,0,0,0-1.36.36,1.07,1.07,0,0,0-.48.91,1,1,0,0,0,.44.87,3.22,3.22,0,0,0,1.55.42l1.32.13a5.34,5.34,0,0,1,2.83,1.11c3.25,2.42.79,7-.31,7.82-2.24,1.71-5.31,1.65-6.78,1.66-1.17,0-9.61.21-13.82,0-1.28-.08-73.32-2-81.09-1.24"/><path class="cls-7" d="M109.75,19.05c-.27-.33,0,.13,0,0Z"/><path class="cls-7" d="M60.92,14.39c2-2.2,4.35-3.53,7.35-3a3.25,3.25,0,0,1,2.39,1.67,2.41,2.41,0,0,1-1.16,3.28,2.07,2.07,0,0,1-3.09-1.1,6.51,6.51,0,0,1-.07-1.47c0-.74-.33-1-1.11-.89-1.76.21-1.56,2-1.72,5.15"/><path class="cls-8" d="M86.34,10.6c-.11,0-6.39,0-6.57,0H77.28c-.19,0-.28.09-.28.27v1h0c-.66-1-1.76-1.29-3.37-1.29a6,6,0,0,0-3.49,1.23,4.67,4.67,0,0,1,.81.95,2.79,2.79,0,0,1-1.18,3.87,3.11,3.11,0,0,1-1,.33c0,.36,0,.78,0,.89a9.21,9.21,0,0,0,.43,2.32,4.53,4.53,0,0,0,1.65,2.36,4.71,4.71,0,0,0,2.8.82A3.73,3.73,0,0,0,77,21.85h0v1.22c0,2.08.81,3.81-3.06,4-2,.08-27.68.05-29.94,0-.2,0-.62-.63-.74-.49l-.51.53c-.13.13-1.16.44-1,.56.49.6-.89,1.26,0,1.26H73.94a6.11,6.11,0,0,0,4.54-1.57A6,6,0,0,0,80,22.91L80,13h2.2ZM76.71,19a2.25,2.25,0,0,1-2.34,1.68A2.22,2.22,0,0,1,72.07,19a6.14,6.14,0,0,1-.3-2.15,6.34,6.34,0,0,1,.3-2.14,2.21,2.21,0,0,1,2.3-1.65,2.24,2.24,0,0,1,2.34,1.65A6.92,6.92,0,0,1,77,16.85,6.68,6.68,0,0,1,76.71,19Z"/><polygon class="cls-8" points="47.74 23.49 47.74 25.02 77.61 25.19 77.61 23.49 47.74 23.49"/><path class="cls-7" d="M52.59,3.57c-.12,0-.81,0-.93,0-2.24,0-3.11.73-3.12,2.79,0,4.77.09,8.47.07,13.24,0,1.07,0,3.78-.15,4.84-.26,1.67-1,2.95-3.68,4-3.67.91-7.15.61-9.92-2.15a4.22,4.22,0,0,1-1.33-3.49,3.1,3.1,0,0,1,3.59-2.64c1.89.29,3,1.76,2.48,3.38a8.53,8.53,0,0,1-1,1.62c-.49.8-.35,1.27.54,1.73,2,1,3.9.24,4.24-1.85a14.25,14.25,0,0,0,.12-2.36c0-5.9,0-10.7,0-16.6,0-1.84-1.29-2.35-2.65-2.44-.48,0-1-.05-1.52-.05,0-.11,0-1.47,0-1.76a2.36,2.36,0,0,1,.35,0c4.75,0,7.61,0,12.38,0,.17,0,.34,0,.5,0"/><path class="cls-7" d="M115.65,11.13h-2.33c-.17,0-.26.08-.26.25v8.44c-.24,1.83-1.26.87-1.72-.1l-.12-.21c-1.27-2.28-2.67-4.64-4-7.14,0,0-.2-.29-.23-.35l.34-.1a5.4,5.4,0,0,0,1.59-1.07c1.82-1.84,2.12-6.25-.67-8a5.2,5.2,0,0,0-2.47-.9c-.83-.06-1.65-.08-2.48-.09l-.16,0c-2.78,0-5.55-.06-8.33-.06l-.25,0V3.12c.26,0,.51,0,.76,0,1.13.14,1.76.44,1.75,1.89,0,4.87,0,9.93,0,14.79a4.69,4.69,0,0,1,0,.53,1.18,1.18,0,0,1-.73,1.06,3.24,3.24,0,0,1-.69.21c-.35.05-.71.08-1.06.11v1.37h9.26V21.74a4.45,4.45,0,0,1-.65,0,6.59,6.59,0,0,1-1-.22,1.16,1.16,0,0,1-.83-1.08c0-.13,0-.27,0-.41V12.34c.5,0,1.57,0,2.06,0a.4.4,0,0,1,.38.25c1.26,2.35,2.5,4.71,3.79,7A15.84,15.84,0,0,0,109,21.89a3.73,3.73,0,0,0,3.13,1.45h3.51a.29.29,0,0,0,.1,0h0v0a.23.23,0,0,0,.11-.2V11.38A.22.22,0,0,0,115.65,11.13Zm-9.88-1.45a2.55,2.55,0,0,1-1.57.82c-.93.07-1.86.07-2.81.1,0-2.14,0-4.22-.07-6.3l.06,0c.84,0,1.68,0,2.52.07a3.22,3.22,0,0,1,1.47.54C107,6,106.85,8.58,105.77,9.68Z"/></svg>